Musala-Aerosol.ufo
<glyph name="numbersign" format="2">
	<advance width="691.8"/>
	<unicode hex="0023"/>
	<outline>
		<contour>
			<point x="87.346" y="513.057" type="line"/>
			<point x="87.346" y="406.057" type="line"/>
			<point x="171.088" y="409.026"/>
			<point x="254.817" y="410.996"/>
			<point x="370.194" y="410.965" type="curve" smooth="yes"/>
			<point x="399.99245" y="410.9589"/>
			<point x="427.62218" y="410.86971"/>
			<point x="453.4227" y="410.70505" type="curve"/>
			<point x="441.48503" y="349.98991" type="line"/>
			<point x="571.68436" y="329.9104" type="line"/>
			<point x="587.96214" y="408.89512" type="line"/>
			<point x="623.25191" y="408.12494"/>
			<point x="654.89932" y="407.16467"/>
			<point x="684.803" y="406.057" type="curve"/>
			<point x="684.803" y="513.057" type="line"/>
			<point x="610.24483" y="513.057" type="line"/>
			<point x="647.038" y="685.049" type="line"/>
			<point x="643.119" y="689.956"/>
			<point x="610.783" y="708.173"/>
			<point x="600.089" y="710.364" type="curve" smooth="yes"/>
			<point x="589.655" y="712.502"/>
			<point x="496.649" y="695.066"/>
			<point x="489.648" y="690.303" type="curve"/>
			<point x="491.64952" y="666.0575"/>
			<point x="480.65434" y="572.26701"/>
			<point x="472.33575" y="513.057" type="curve"/>
			<point x="342.70091" y="513.057" type="line"/>
			<point x="380.418" y="684.985" type="line"/>
			<point x="376.499" y="689.892"/>
			<point x="348.163" y="708.109"/>
			<point x="337.469" y="710.3" type="curve" smooth="yes"/>
			<point x="327.035" y="712.438"/>
			<point x="232.029" y="695.002"/>
			<point x="225.028" y="690.239" type="curve"/>
			<point x="227.0288" y="666.00223"/>
			<point x="214.93991" y="572.27057"/>
			<point x="206.05449" y="513.057" type="curve"/>
		</contour>
		<contour>
			<point x="43.997" y="180.849" type="line"/>
			<point x="75.10996" y="181.95208"/>
			<point x="105.80701" y="182.91727"/>
			<point x="138.01915" y="183.69316" type="curve"/>
			<point x="128.79" y="141.075" type="line" smooth="yes"/>
			<point x="123.91492" y="118.56298"/>
			<point x="100.942" y="15.891"/>
			<point x="94.957" y="-0.273" type="curve"/>
			<point x="230.088" y="-0.273" type="line"/>
			<point x="270.86908" y="185.62177" type="line"/>
			<point x="287.73798" y="185.71552"/>
			<point x="305.34192" y="185.76197"/>
			<point x="323.836" y="185.757" type="curve" smooth="yes"/>
			<point x="352.67567" y="185.7511"/>
			<point x="379.60794" y="185.66738"/>
			<point x="404.89014" y="185.51274" type="curve"/>
			<point x="395.41" y="141.139" type="line" smooth="yes"/>
			<point x="390.59759" y="118.6135"/>
			<point x="365.562" y="15.955"/>
			<point x="359.577" y="-0.209" type="curve"/>
			<point x="496.708" y="-0.209" type="line"/>
			<point x="537.08105" y="183.82582" type="line"/>
			<point x="575.56895" y="183.03345"/>
			<point x="609.72829" y="182.02418"/>
			<point x="641.455" y="180.849" type="curve"/>
			<point x="641.455" y="287.849" type="line"/>
			<point x="293.29541" y="287.849" type="line"/>
			<point x="306.85382" y="351.29999" type="line"/>
			<point x="178.82331" y="373.68903" type="line"/>
			<point x="160.57457" y="287.849" type="line"/>
			<point x="43.997" y="287.849" type="line"/>
		</contour>
	</outline>
</glyph>
<glyph name="ampersand" format="2">
	<advance width="645.74"/>
	<unicode hex="0026"/>
	<guideline x="617.3" y="348.48" angle="270"/>
	<outline>
		<contour>
			<point x="139.20463" y="463.18984" type="curve"/>
			<point x="246.41399" y="533.23637" type="line"/>
			<point x="240.74813" y="554.62393"/>
			<point x="236.21062" y="576.7797"/>
			<point x="232.988" y="599.706" type="curve" smooth="yes"/>
			<point x="226.405" y="646.541"/>
			<point x="282.684" y="704.027"/>
			<point x="361.374" y="704.027" type="curve" smooth="yes"/>
			<point x="414.809" y="704.027"/>
			<point x="446.421" y="684.09"/>
			<point x="459.385" y="676.685" type="curve"/>
			<point x="468.974" y="684.863"/>
			<point x="503.191" y="733.742"/>
			<point x="503.191" y="742.183" type="curve" smooth="yes"/>
			<point x="503.191" y="749.998"/>
			<point x="484.742" y="781.9"/>
			<point x="478.444" y="788.424" type="curve"/>
			<point x="459.385" y="793.602"/>
			<point x="426.871" y="800.63"/>
			<point x="379.496" y="800.63" type="curve" smooth="yes"/>
			<point x="324.793" y="800.63"/>
			<point x="245.959" y="778.377"/>
			<point x="226.046" y="764.362" type="curve"/>
			<point x="200.079" y="749.998"/>
			<point x="104.353" y="628.463"/>
			<point x="104.353" y="593.819" type="curve" smooth="yes"/>
			<point x="104.353" y="570.12586"/>
			<point x="118.14717" y="520.58837"/>
		</contour>
		<contour>
			<point x="417.93382" y="506.858" type="line"/>
			<point x="319.86974" y="506.858"/>
			<point x="181.79137" y="429.02562"/>
			<point x="157.97075" y="414.7175" type="curve"/>
			<point x="181.96277" y="355.71442"/>
			<point x="211.19034" y="293.89703"/>
			<point x="239.551" y="246.069" type="curve" smooth="yes"/>
			<point x="266.13888" y="201.23006"/>
			<point x="309.99166" y="157.55897"/>
			<point x="363.11617" y="111.20352" type="curve"/>
			<point x="336.82667" y="90.27078"/>
			<point x="304.23607" y="73"/>
			<point x="256.132" y="73" type="curve" smooth="yes"/>
			<point x="199.225" y="73"/>
			<point x="159.9105" y="133.98199"/>
			<point x="161.26" y="216.859" type="curve" smooth="yes"/>
			<point x="162.18672" y="273.77202" type="line"/>
			<point x="97.30097" y="373.0276" type="line"/>
			<point x="51.83844" y="331.68631"/>
			<point x="34.72" y="271.69813"/>
			<point x="34.72" y="196.401" type="curve" smooth="yes"/>
			<point x="34.72" y="75"/>
			<point x="140.67" y="-11"/>
			<point x="225.7" y="-11" type="curve" smooth="yes"/>
			<point x="307.14398" y="-11"/>
			<point x="372.0444" y="30.99165"/>
			<point x="415.10589" y="67.08019" type="curve"/>
			<point x="440.90332" y="45.59732"/>
			<point x="468.03806" y="23.34957"/>
			<point x="495.811" y="0" type="curve"/>
			<point x="512.516" y="0.794"/>
			<point x="616.735" y="81"/>
			<point x="616.735" y="90.45" type="curve"/>
			<point x="593.03661" y="103.60728"/>
			<point x="550.0539" y="129.46782"/>
			<point x="501.04777" y="168.19609" type="curve"/>
			<point x="531.61134" y="224.45959"/>
			<point x="559.12785" y="301.04645"/>
			<point x="561.09469" y="355.82089" type="curve"/>
			<point x="442.87683" y="357.97962" type="line"/>
			<point x="445.75604" y="312.44874"/>
			<point x="441.40463" y="265.36507"/>
			<point x="433.71614" y="227.07105" type="curve"/>
			<point x="384.92548" y="274.34298"/>
			<point x="335.98795" y="333.12203"/>
			<point x="298.0235" y="403.54614" type="curve"/>
			<point x="616.583" y="416.922" type="line"/>
			<point x="616.583" y="510.922" type="line"/>
		</contour>
	</outline>
</glyph>
<glyph name="parenleft" format="2">
	<advance width="403"/>
	<unicode hex="0028"/>
	<outline>
		<contour>
			<point x="55.22008" y="449.86385" type="curve"/>
			<point x="205.00997" y="430.09971" type="line"/>
			<point x="205.12136" y="552.13466"/>
			<point x="206.478" y="618.94135"/>
			<point x="223" y="663" type="curve"/>
			<point x="250" y="709"/>
			<point x="328.538" y="751"/>
			<point x="359" y="764" type="curve"/>
			<point x="323.389" y="835.266" type="line"/>
			<point x="269.09036" y="829.82262"/>
			<point x="88.29707" y="749.26123"/>
		</contour>
		<contour>
			<point x="205.12699" y="372.16991" type="curve"/>
			<point x="51.5412" y="405.79614" type="line"/>
			<point x="50.52882" y="388.2176"/>
			<point x="50" y="369.96013"/>
			<point x="50" y="351" type="curve" smooth="yes"/>
			<point x="50" y="89"/>
			<point x="227.233" y="-76"/>
			<point x="356" y="-81" type="curve"/>
			<point x="373" y="-2.425" type="line"/>
			<point x="275.21157" y="29.86501"/>
			<point x="208.41351" y="69.93493"/>
		</contour>
	</outline>
</glyph>
<glyph name="comma" format="2">
	<advance width="254.02"/>
	<unicode hex="002C"/>
	<outline>
		<contour>
			<point x="34.996" y="-163.258" type="line"/>
			<point x="76.618" y="-102.751"/>
			<point x="76.618" y="0"/>
			<point x="59.231" y="92.242" type="curve"/>
			<point x="72.881" y="110.324"/>
			<point x="86.176" y="128.406"/>
			<point x="96.624" y="136.113" type="curve"/>
			<point x="109.128" y="141.46"/>
			<point x="170.435" y="147.724"/>
			<point x="201.703" y="136.113" type="curve"/>
			<point x="203.78" y="117.062"/>
			<point x="224.555" y="-41.492"/>
			<point x="87.66" y="-205.773" type="curve"/>
		</contour>
	</outline>
</glyph>
<glyph name="hyphen" format="2">
	<advance width="446.78"/>
	<unicode hex="002D"/>
	<outline>
		<contour>
			<point x="44.999" y="402.70099" type="line"/>
			<point x="44.999" y="303.70099" type="line"/>
			<point x="116.493" y="306.67001"/>
			<point x="172.853" y="308.64001"/>
			<point x="221.347" y="308.60901" type="curve" smooth="yes"/>
			<point x="266.77899" y="308.57999"/>
			<point x="333.34399" y="306.67001"/>
			<point x="401.77499" y="303.70099" type="curve"/>
			<point x="401.77499" y="402.70099" type="line"/>
		</contour>
	</outline>
</glyph>
<glyph name="two" format="2">
	<advance width="587.8"/>
	<unicode hex="0032"/>
	<guideline x="500.4" y="329.19" angle="270"/>
	<guideline x="44.96" y="318.08" angle="270"/>
	<guideline x="427.99" y="705.05" angle="0"/>
	<outline>
		<contour>
			<point x="350.50949" y="414.13402" type="curve"/>
			<point x="465.10663" y="362.92874" type="line"/>
			<point x="506.71988" y="424.61902"/>
			<point x="537.804" y="494.08158"/>
			<point x="537.804" y="563.861" type="curve" smooth="yes"/>
			<point x="537.804" y="695.384"/>
			<point x="432.332" y="770"/>
			<point x="300.541" y="770" type="curve" smooth="yes"/>
			<point x="202.142" y="770"/>
			<point x="94.116" y="701.214"/>
			<point x="83.167" y="693.316" type="curve"/>
			<point x="78.87" y="686.792"/>
			<point x="56.469" y="646.955"/>
			<point x="56.469" y="639.14" type="curve" smooth="yes"/>
			<point x="56.469" y="631.699"/>
			<point x="106.94" y="582.823"/>
			<point x="116.529" y="574.645" type="curve"/>
			<point x="128.447" y="582.639"/>
			<point x="218.78" y="680.047"/>
			<point x="300.616" y="680.047" type="curve" smooth="yes"/>
			<point x="359.508" y="680.047"/>
			<point x="407.602" y="641.134"/>
			<point x="407.602" y="559.242" type="curve" smooth="yes"/>
			<point x="407.602" y="517.88617"/>
			<point x="383.6834" y="464.36854"/>
		</contour>
		<contour>
			<point x="50.002" y="62.416" type="curve"/>
			<point x="50.002" y="54.46"/>
			<point x="94.23" y="12.309"/>
			<point x="106.208" y="-0.286" type="curve"/>
			<point x="264.876" y="6.491"/>
			<point x="358.929" y="3.555"/>
			<point x="498.772" y="-6.117" type="curve"/>
			<point x="537.772" y="97.883" type="line"/>
			<point x="429.106" y="101.082"/>
			<point x="424.619" y="98.745"/>
			<point x="310.12" y="98.745" type="curve" smooth="yes"/>
			<point x="283.47571" y="98.745"/>
			<point x="249.58981" y="95.78053"/>
			<point x="227.38163" y="93.23908" type="curve"/>
			<point x="252.02568" y="136.08322"/>
			<point x="341.94462" y="206.09956"/>
			<point x="421.01471" y="304.50481" type="curve"/>
			<point x="318.41209" y="372.07714" type="line"/>
			<point x="215.16956" y="234.27749"/>
			<point x="57.48455" y="101.97702"/>
		</contour>
	</outline>
</glyph>
<glyph name="four" format="2">
	<advance width="662.14"/>
	<unicode hex="0034"/>
	<outline>
		<contour>
			<point x="515.64026" y="727.67469" type="curve"/>
			<point x="367.72654" y="521.1064" type="line"/>
			<point x="361.194" y="-0.009" type="line"/>
			<point x="508.071" y="-0.009" type="line"/>
			<point x="504.247" y="17.285"/>
			<point x="499.231" y="85.031"/>
			<point x="497.054" y="116.779" type="curve"/>
			<point x="497.05601" y="202.36938" type="line"/>
			<point x="521.46445" y="201.15924"/>
			<point x="545.22414" y="199.75507"/>
			<point x="568.142" y="198.17" type="curve"/>
			<point x="612.142" y="302.17" type="line"/>
			<point x="574.96458" y="303.26446"/>
			<point x="536.35446" y="303.71093"/>
			<point x="497.05839" y="303.82469" type="curve"/>
			<point x="497.065" y="585.287" type="line" smooth="yes"/>
			<point x="496.84324" y="618.02482"/>
			<point x="508.62029" y="691.0968"/>
		</contour>
		<contour>
			<point x="39.998" y="261.637" type="curve"/>
			<point x="98.444" y="204.001" type="line"/>
			<point x="171.57582" y="207.12459"/>
			<point x="247.36717" y="208.18477"/>
			<point x="321.52317" y="207.47302" type="curve"/>
			<point x="314.464" y="303.13921" type="line"/>
			<point x="298.91434" y="303.07408"/>
			<point x="283.43499" y="303.032"/>
			<point x="268.071" y="303.032" type="curve" smooth="yes"/>
			<point x="245.99893" y="303.032"/>
			<point x="211.10297" y="299.93243"/>
			<point x="179.79865" y="296.24864" type="curve"/>
			<point x="465.01677" y="760.01106" type="line"/>
			<point x="450.364" y="762.366" type="line"/>
			<point x="439.714" y="762.288"/>
			<point x="360.194" y="739.949"/>
			<point x="340.79" y="729.164" type="curve"/>
			<point x="312.351" y="668.106"/>
			<point x="90.275" y="320.164"/>
		</contour>
	</outline>
</glyph>
<glyph name="seven" format="2">
	<advance width="580.12"/>
	<unicode hex="0037"/>
	<outline>
		<contour>
			<point x="119.742" y="-0.009" type="line"/>
			<point x="276.424" y="-0.216" type="line"/>
			<point x="304.419" y="106.669"/>
			<point x="511.312" y="642.682"/>
			<point x="525.888" y="668.808" type="curve"/>
			<point x="540.121" y="760.152" type="line"/>
			<point x="495.97877" y="757.65352" type="line"/>
			<point x="415.44222" y="635.60388"/>
			<point x="399.24412" y="607.88223"/>
			<point x="390.866" y="591.707" type="curve" smooth="yes"/>
			<point x="380.741" y="572.157"/>
			<point x="240.167" y="320.296"/>
			<point x="165.341" y="135.683" type="curve"/>
		</contour>
		<contour>
			<point x="39.995" y="659.152" type="line"/>
			<point x="84.85693" y="660.57473"/>
			<point x="260.40197" y="657.56216"/>
			<point x="378.29827" y="656.46895" type="curve"/>
			<point x="427.52776" y="754.92972" type="line"/>
			<point x="305.58725" y="750.81726"/>
			<point x="214.75111" y="754.52335"/>
			<point x="89.995" y="763.152" type="curve"/>
		</contour>
	</outline>
</glyph>
<glyph name="colon" format="2">
	<advance width="243.78"/>
	<unicode hex="003A"/>
	<outline>
		<contour>
			<point x="209.783" y="70.618" type="curve" smooth="yes"/>
			<point x="209.783" y="22.587"/>
			<point x="170.871" y="-11.062"/>
			<point x="121.893" y="-11.062" type="curve" smooth="yes"/>
			<point x="73.353" y="-11.062"/>
			<point x="34.002" y="22.587"/>
			<point x="34.002" y="70.618" type="curve" smooth="yes"/>
			<point x="34.002" y="118.649"/>
			<point x="73.353" y="152.297"/>
			<point x="121.893" y="152.297" type="curve" smooth="yes"/>
			<point x="170.434" y="152.297"/>
			<point x="209.783" y="118.649"/>
		</contour>
		<contour>
			<point x="209.783" y="518.321" type="curve" smooth="yes"/>
			<point x="209.783" y="470.29"/>
			<point x="170.871" y="436.641"/>
			<point x="121.893" y="436.641" type="curve" smooth="yes"/>
			<point x="73.353" y="436.641"/>
			<point x="34.002" y="470.29"/>
			<point x="34.002" y="518.321" type="curve" smooth="yes"/>
			<point x="34.002" y="566.352"/>
			<point x="73.353" y="600"/>
			<point x="121.893" y="600" type="curve" smooth="yes"/>
			<point x="170.434" y="600"/>
			<point x="209.783" y="566.352"/>
		</contour>
	</outline>
</glyph>
<glyph name="at" format="2">
	<advance width="1111"/>
	<unicode hex="0040"/>
	<outline>
		<contour>
			<point x="922.86715" y="383.99918" type="curve"/>
			<point x="1055.27768" y="390.26802" type="line"/>
			<point x="1042.84237" y="631.51689"/>
			<point x="871.02969" y="815.921"/>
			<point x="580.003" y="815.921" type="curve" smooth="yes"/>
			<point x="314.84491" y="815.921"/>
			<point x="59.82612" y="655.71877"/>
			<point x="55.07057" y="294.93104" type="curve"/>
			<point x="187.06603" y="299.08108" type="line"/>
			<point x="189.03077" y="440.98444"/>
			<point x="236.63934" y="558.10467"/>
			<point x="289.003" y="609.921" type="curve"/>
			<point x="315.337" y="631.921"/>
			<point x="413.844" y="702.921"/>
			<point x="570.628" y="702.921" type="curve" smooth="yes"/>
			<point x="820.52565" y="702.921"/>
			<point x="911.95018" y="586.21517"/>
		</contour>
		<contour>
			<point x="56.36647" y="240.49375" type="line"/>
			<point x="75.85644" y="-69.7787"/>
			<point x="301.89995" y="-228.079"/>
			<point x="580.003" y="-228.079" type="curve" smooth="yes"/>
			<point x="667.209" y="-228.079"/>
			<point x="756.87" y="-207.894"/>
			<point x="793.031" y="-190.007" type="curve"/>
			<point x="802.614" y="-179.744"/>
			<point x="822.987" y="-148.086"/>
			<point x="822.987" y="-141.667" type="curve" smooth="yes"/>
			<point x="822.987" y="-136.705"/>
			<point x="793.311" y="-99.067"/>
			<point x="777.972" y="-78.268" type="curve"/>
			<point x="751.864" y="-89.209"/>
			<point x="689.941" y="-115.079"/>
			<point x="597.003" y="-115.079" type="curve" smooth="yes"/>
			<point x="422.91847" y="-115.079"/>
			<point x="209.3731" y="-74.68137"/>
			<point x="188.64053" y="238.7061" type="curve"/>
		</contour>
		<contour>
			<point x="645.54" y="197.6447" type="line"/>
			<point x="645.54" y="44.16165"/>
			<point x="710.31729" y="-11"/>
			<point x="838.065" y="-11" type="curve" smooth="yes"/>
			<point x="996.68381" y="-11"/>
			<point x="1050.45818" y="144.20795"/>
			<point x="1055.58854" y="331.12772" type="curve"/>
			<point x="923.99514" y="330.74723" type="line"/>
			<point x="923.99514" y="178.74395"/>
			<point x="915.82754" y="136.20722"/>
			<point x="909.723" y="116.515" type="curve"/>
			<point x="899.261" y="99.372"/>
			<point x="870.668" y="72.991"/>
			<point x="840.159" y="72.991" type="curve" smooth="yes"/>
			<point x="804.773" y="72.991"/>
			<point x="777.406" y="96.41"/>
			<point x="777.406" y="172.1936" type="curve" smooth="yes"/>
			<point x="777.415" y="467.818" type="line"/>
			<point x="780.415" y="496.538"/>
			<point x="800.116" y="561.627"/>
			<point x="805.54" y="583" type="curve"/>
			<point x="800.54" y="587"/>
			<point x="750.54" y="601"/>
			<point x="739.54" y="600" type="curve" smooth="yes"/>
			<point x="731.39017" y="600"/>
			<point x="687.01136" y="579.1409"/>
			<point x="662.12071" y="565.89129" type="curve"/>
			<point x="617.28842" y="583.09343"/>
			<point x="551.9087" y="600"/>
			<point x="514.591" y="600" type="curve" smooth="yes"/>
			<point x="393.876" y="600"/>
			<point x="305.349" y="502.942"/>
			<point x="305.349" y="282.522" type="curve" smooth="yes"/>
			<point x="305.349" y="75"/>
			<point x="426.02" y="-11"/>
			<point x="510.05" y="-11" type="curve" smooth="yes"/>
			<point x="550.77585" y="-11"/>
			<point x="582.49717" y="0.13459"/>
			<point x="618.07396" y="18.9401" type="curve"/>
			<point x="614.44776" y="29.73407"/>
			<point x="600.19536" y="70"/>
			<point x="597.19536" y="89.84715" type="curve"/>
			<point x="575.91795" y="78.89861"/>
			<point x="558.20116" y="73"/>
			<point x="540.482" y="73" type="curve" smooth="yes"/>
			<point x="483.575" y="73"/>
			<point x="435.204" y="118.466"/>
			<point x="435.204" y="300" type="curve" smooth="yes"/>
			<point x="435.204" y="466"/>
			<point x="506.204" y="513"/>
			<point x="553.204" y="513" type="curve" smooth="yes"/>
			<point x="572.77647" y="513"/>
			<point x="613.53456" y="499.02613"/>
			<point x="645.54" y="485.57009" type="curve"/>
		</contour>
	</outline>
</glyph>
<glyph name="A" format="2">
	<advance width="672.11"/>
	<unicode hex="0041"/>
	<guideline x="695.59" y="780" angle="0"/>
	<anchor x="336" y="800" name="top"/>
	<anchor x="336" y="0" name="bottom"/>
	<anchor x="613" y="10" name="ogonek"/>
	<outline>
		<contour>
			<point x="410.23597" y="362.5808" type="curve"/>
			<point x="541.17033" y="372.55356" type="line"/>
			<point x="484.827" y="632.85" type="line" smooth="yes"/>
			<point x="476.786" y="669.996"/>
			<point x="463.09" y="749.284"/>
			<point x="458.853" y="780" type="curve"/>
			<point x="444.066" y="785.085"/>
			<point x="379.818" y="800.073"/>
			<point x="370.348" y="800.073" type="curve"/>
			<point x="363.24008" y="800.073"/>
			<point x="346.01919" y="796.82393"/>
			<point x="326.00643" y="792.20788" type="curve"/>
			<point x="365.98984" y="602.03663"/>
			<point x="386.54683" y="491.67993"/>
		</contour>
		<contour>
			<point x="315.77709" y="615.80145" type="curve"/>
			<point x="272.53484" y="778.37607" type="line"/>
			<point x="253.4447" y="772.88219"/>
			<point x="237.79733" y="767.64234"/>
			<point x="232.608" y="764.46" type="curve"/>
			<point x="213.535" y="664.218" type="line"/>
			<point x="81.092" y="139.785" type="line"/>
			<point x="77.084" y="120.868"/>
			<point x="45.632" y="14.99"/>
			<point x="40" y="0.719" type="curve"/>
			<point x="187.553" y="0" type="line"/>
			<point x="215.87038" y="169.14865"/>
			<point x="280.4278" y="469.15235"/>
		</contour>
		<contour>
			<point x="551.77743" y="323.55059" type="line"/>
			<point x="420.54344" y="321.02282" type="line"/>
			<point x="444.90545" y="160.48403"/>
			<point x="446.80203" y="160.16969"/>
			<point x="477.489" y="0.719" type="curve"/>
			<point x="632.114" y="0" type="line"/>
			<point x="626.665" y="14.99"/>
			<point x="596.722" y="116.979"/>
			<point x="593.496" y="130.818" type="curve"/>
		</contour>
		<contour>
			<point x="294.88638" y="322.64766" type="curve"/>
			<point x="272.13765" y="234" type="line"/>
			<point x="491.56" y="234" type="line"/>
			<point x="551.77743" y="323.55059" type="line"/>
			<point x="380.20546" y="322.50807"/>
			<point x="336.79242" y="321.99241"/>
		</contour>
	</outline>
</glyph>
<glyph name="B" format="2">
	<advance width="599.97"/>
	<unicode hex="0042"/>
	<outline>
		<contour>
			<point x="216.98205" y="0.021" type="line"/>
			<point x="215" y="640.80551" type="line"/>
			<point x="75.93151" y="644.23414" type="line"/>
			<point x="77.24424" y="620.21266"/>
			<point x="78.54502" y="597.38105"/>
			<point x="80.045" y="578.414" type="curve"/>
			<point x="80.055" y="153.611" type="line"/>
			<point x="80.041" y="121.307"/>
			<point x="70.648" y="41.229"/>
			<point x="65" y="0" type="curve"/>
		</contour>
		<contour>
			<point x="468.77092" y="393.64704" type="curve"/>
			<point x="457.93599" y="384.8779"/>
			<point x="413.78648" y="361.74516"/>
			<point x="358.48408" y="346.49775" type="curve"/>
			<point x="395.018" y="327.29479"/>
			<point x="420.29" y="306.66917"/>
			<point x="420.29" y="247.666" type="curve" smooth="yes"/>
			<point x="420.29" y="155.718"/>
			<point x="390.107" y="96.194"/>
			<point x="324.648" y="96.194" type="curve" smooth="yes"/>
			<point x="311.10034" y="96.194"/>
			<point x="285.27729" y="96.713"/>
			<point x="259.35302" y="97.59107" type="curve"/>
			<point x="255.3769" y="0.42997" type="line"/>
			<point x="347.34143" y="2.16134"/>
			<point x="388.2897" y="9.17019"/>
			<point x="432.432" y="22.337" type="curve" smooth="yes"/>
			<point x="492.717" y="40.319"/>
			<point x="559.972" y="132.94"/>
			<point x="559.972" y="254.467" type="curve" smooth="yes"/>
			<point x="559.972" y="327.29479"/>
			<point x="525.27378" y="369.24934"/>
		</contour>
		<contour>
			<point x="271.06149" y="441.4635" type="curve"/>
			<point x="267.70003" y="376.41485" type="line"/>
			<point x="373.79915" y="392.88293"/>
			<point x="522.87253" y="419.74779"/>
			<point x="534.7" y="577.049" type="curve" smooth="yes"/>
			<point x="541.94272" y="673.37468"/>
			<point x="495.471" y="745.359"/>
			<point x="437.935" y="768.688" type="curve" smooth="yes"/>
			<point x="386.003" y="789.744"/>
			<point x="281.592" y="800.152"/>
			<point x="212.719" y="800.152" type="curve" smooth="yes"/>
			<point x="179.22" y="800.152"/>
			<point x="110.24" y="789.744"/>
			<point x="66" y="783.04" type="curve"/>
			<point x="69.27761" y="756.92788"/>
			<point x="71.60562" y="724.67415"/>
			<point x="73.65048" y="688.72024" type="curve"/>
			<point x="157.36948" y="695.28586"/>
			<point x="258.736" y="700.271"/>
			<point x="281.592" y="700.271" type="curve" smooth="yes"/>
			<point x="364.994" y="700.271"/>
			<point x="395.018" y="655.103"/>
			<point x="395.018" y="587.049" type="curve" smooth="yes"/>
			<point x="395.018" y="494.23569"/>
			<point x="369.19161" y="445.84061"/>
		</contour>
	</outline>
</glyph>
<glyph name="G" format="2">
	<advance width="632.13"/>
	<unicode hex="0047"/>
	<outline>
		<contour>
			<point x="587.133" y="395" type="curve"/>
			<point x="587.133" y="139.812" type="line"/>
			<point x="582.133" y="120.695"/>
			<point x="555.408" y="73.385"/>
			<point x="547.465" y="63.721" type="curve"/>
			<point x="540.53155" y="57.6221"/>
			<point x="512.07319" y="35.92074"/>
			<point x="471.74169" y="17.46586" type="curve"/>
			<point x="475.72567" y="180.47719"/>
			<point x="473.04435" y="255.493"/>
			<point x="469.27774" y="324.54485" type="curve"/>
			<point x="491.96238" y="301" type="line"/>
			<point x="328" y="301" type="line"/>
			<point x="328" y="395" type="line"/>
			<point x="413.465" y="388.33"/>
			<point x="539.426" y="389.155"/>
		</contour>
		<contour>
			<point x="331.87805" y="681.38888" type="line"/>
			<point x="332.64125" y="799.34899" type="line"/>
			<point x="416.672" y="815.22679"/>
			<point x="489.861" y="794.601"/>
			<point x="511.789" y="785.478" type="curve"/>
			<point x="519.168" y="775.598"/>
			<point x="537.867" y="741.561"/>
			<point x="537.867" y="733.683" type="curve" smooth="yes"/>
			<point x="537.867" y="725.683"/>
			<point x="489.425" y="660.866"/>
			<point x="481.174" y="652.571" type="curve"/>
			<point x="459.061" y="661.866"/>
			<point x="422" y="683.535"/>
			<point x="353.967" y="683.535" type="curve"/>
		</contour>
		<contour>
			<point x="420.71775" y="110.12543" type="curve"/>
			<point x="424.99676" y="-0.04094" type="line"/>
			<point x="402.23803" y="-6.65649"/>
			<point x="377.53721" y="-11"/>
			<point x="351.955" y="-11" type="curve" smooth="yes"/>
			<point x="183.672" y="-11"/>
			<point x="54.996" y="124.284"/>
			<point x="54.996" y="365" type="curve" smooth="yes"/>
			<point x="54.996" y="575.12387"/>
			<point x="151.57272" y="723.91627"/>
			<point x="275.67495" y="780.38389" type="curve"/>
			<point x="281.68787" y="660.00929" type="line"/>
			<point x="247.81862" y="637.43421"/>
			<point x="225.81148" y="605.36143"/>
			<point x="219.816" y="595.52" type="curve"/>
			<point x="212.555" y="580.441"/>
			<point x="197.996" y="531.09"/>
			<point x="197.996" y="393.491" type="curve" smooth="yes"/>
			<point x="197.996" y="222.957"/>
			<point x="234.22" y="103.673"/>
			<point x="365" y="102" type="curve" smooth="yes"/>
			<point x="386.00505" y="101.7313"/>
			<point x="404.64572" y="104.79631"/>
		</contour>
	</outline>
</glyph>
<glyph name="J" format="2">
	<advance width="323.75"/>
	<unicode hex="004A"/>
	<guideline x="-7.98" y="-102.96" angle="0"/>
	<outline>
		<contour>
			<point x="102.99845" y="199.9352" type="curve"/>
			<point x="238.89256" y="129.94194" type="line"/>
			<point x="244.16942" y="224.41164"/>
			<point x="244.76321" y="370.60895"/>
			<point x="248.231" y="444.792" type="curve" smooth="yes"/>
			<point x="252.454" y="535.148"/>
			<point x="260.856" y="674.672"/>
			<point x="258.269" y="789.164" type="curve"/>
			<point x="252.847" y="791.485"/>
			<point x="216.094" y="800.244"/>
			<point x="205.178" y="800.164" type="curve" smooth="yes"/>
			<point x="194.527" y="800.086"/>
			<point x="110.42" y="784.855"/>
			<point x="98.65" y="780.746" type="curve"/>
			<point x="117.639" y="709.121"/>
			<point x="110.238" y="577.852"/>
			<point x="108.853" y="419.157" type="curve" smooth="yes"/>
			<point x="108.37713" y="364.59591"/>
			<point x="108.06586" y="276.20696"/>
		</contour>
		<contour>
			<point x="234.90907" y="82.46247" type="curve"/>
			<point x="97.51608" y="137.56998" type="line"/>
			<point x="93.49261" y="105.97384"/>
			<point x="87.96175" y="81.66672"/>
			<point x="80.324" y="70.977" type="curve"/>
			<point x="66.408" y="45.135"/>
			<point x="2.414" y="-4.303"/>
			<point x="-39.997" y="-26.634" type="curve"/>
			<point x="-7.977" y="-102.955" type="line"/>
			<point x="35.432" y="-86.516"/>
			<point x="113.804" y="-58.632"/>
			<point x="148.359" y="-35.143" type="curve" smooth="yes"/>
			<point x="179.37921" y="-14.05535"/>
			<point x="223.66691" y="40.90873"/>
		</contour>
	</outline>
</glyph>
<glyph name="Q" format="2">
	<advance width="719"/>
	<unicode hex="0051"/>
	<guideline x="669" y="345.88" angle="270"/>
	<outline>
		<contour>
			<point x="391.97425" y="110.21447" type="curve"/>
			<point x="395.58199" y="103.63956"/>
			<point x="443.14782" y="71.24833"/>
			<point x="449.41649" y="68.14413" type="curve" smooth="yes"/>
			<point x="495.75688" y="45.19672" type="line"/>
			<point x="560.57472" y="93.37453"/>
			<point x="633" y="218.50598"/>
			<point x="633" y="442" type="curve" smooth="yes"/>
			<point x="633" y="639.51872"/>
			<point x="550.03829" y="795.55658"/>
			<point x="381.54593" y="810.78078" type="curve"/>
			<point x="377.06166" y="696.15968" type="line"/>
			<point x="443.71027" y="681.20521"/>
			<point x="491" y="604.22181"/>
			<point x="491" y="410.247" type="curve" smooth="yes"/>
			<point x="491" y="321.44356"/>
			<point x="488.21706" y="250.26345"/>
			<point x="478.40462" y="198.48167" type="curve"/>
			<point x="464.79849" y="166.0586"/>
			<point x="426.99383" y="122.18028"/>
		</contour>
		<contour>
			<point x="399.01385" y="22.79229" type="curve"/>
			<point x="333.3752" y="57.19635"/>
			<point x="197" y="122.18028"/>
			<point x="197" y="388.79578" type="curve" smooth="yes"/>
			<point x="197" y="471.79578"/>
			<point x="204.869" y="579.683"/>
			<point x="215" y="607" type="curve"/>
			<point x="240.63364" y="648.01383"/>
			<point x="283.05942" y="686.10728"/>
			<point x="327.54431" y="696.32711" type="curve"/>
			<point x="323.73248" y="809.52472" type="line"/>
			<point x="202.0403" y="789.94182"/>
			<point x="55" y="653.0157"/>
			<point x="55" y="358" type="curve" smooth="yes"/>
			<point x="55" y="19.11308"/>
			<point x="434.8722" y="-123.34407"/>
			<point x="587.374" y="-174.16" type="curve"/>
			<point x="590.76" y="-173.031"/>
			<point x="638.524" y="-156.1"/>
			<point x="644.168" y="-151.585" type="curve" smooth="yes"/>
			<point x="652.069" y="-143.684"/>
			<point x="669" y="-52.256"/>
			<point x="669" y="-43.226" type="curve"/>
			<point x="604.755" y="-36.224"/>
			<point x="490.82365" y="-29.25622"/>
		</contour>
	</outline>
</glyph>
<glyph name="R" format="2">
	<advance width="653.86"/>
	<unicode hex="0052"/>
	<outline>
		<contour>
			<point x="215.855" y="0" type="line"/>
			<point x="213.855" y="802" type="line"/>
			<point x="179.855" y="802"/>
			<point x="109.003" y="791.15"/>
			<point x="65.003" y="784.15" type="curve"/>
			<point x="71.781" y="730.151"/>
			<point x="76.355" y="645.948"/>
			<point x="80.905" y="588.414" type="curve"/>
			<point x="80.915" y="153.611" type="line"/>
			<point x="80.915" y="128.688"/>
			<point x="73.508" y="41.229"/>
			<point x="67.86" y="0" type="curve"/>
		</contour>
		<contour>
			<point x="272.58141" y="801.22381" type="curve"/>
			<point x="267.86473" y="700.96994" type="line"/>
			<point x="282.89039" y="701.57617"/>
			<point x="297.46207" y="702"/>
			<point x="308.855" y="702" type="curve" smooth="yes"/>
			<point x="373.289" y="702"/>
			<point x="418.855" y="646"/>
			<point x="418.855" y="559" type="curve" smooth="yes"/>
			<point x="418.855" y="479"/>
			<point x="392.855" y="388"/>
			<point x="256.855" y="388" type="curve" smooth="yes"/>
			<point x="230.855" y="388"/>
			<point x="206.855" y="390"/>
			<point x="185.855" y="392" type="curve"/>
			<point x="153.855" y="330" type="line"/>
			<point x="190.855" y="320"/>
			<point x="311.855" y="309"/>
			<point x="358.855" y="309" type="curve" smooth="yes"/>
			<point x="444.855" y="309"/>
			<point x="558.855" y="460"/>
			<point x="558.855" y="560" type="curve" smooth="yes"/>
			<point x="558.855" y="663"/>
			<point x="488.305" y="765.146"/>
			<point x="427.855" y="782" type="curve" smooth="yes"/>
			<point x="386.65151" y="793.48826"/>
			<point x="339.104" y="799.27477"/>
		</contour>
		<contour>
			<point x="451.0605" y="294.62236" type="line"/>
			<point x="444.08759" y="289.01737"/>
			<point x="418.855" y="263.43657"/>
			<point x="330.39417" y="257.92756" type="curve"/>
			<point x="445.86" y="0" type="line"/>
			<point x="613.86" y="0" type="line"/>
			<point x="596.583" y="26.828"/>
			<point x="544.975" y="105.849"/>
			<point x="531.033" y="131.635" type="curve"/>
		</contour>
	</outline>
</glyph>
<glyph name="W" format="2">
	<advance width="988.43"/>
	<unicode hex="0057"/>
	<outline>
		<contour>
			<point x="474.975" y="89.965" type="curve"/>
			<point x="551.82516" y="140.64528"/>
			<point x="548.55855" y="199.22961"/>
			<point x="565.071" y="358.416" type="curve"/>
			<point x="568.222" y="626.265" type="line" smooth="yes"/>
			<point x="568.96336" y="689.28429"/>
			<point x="575.378" y="733.221"/>
			<point x="576.109" y="789.373" type="curve"/>
			<point x="570.687" y="791.694"/>
			<point x="533.934" y="800.453"/>
			<point x="523.018" y="800.373" type="curve" smooth="yes"/>
			<point x="512.367" y="800.295"/>
			<point x="443.26" y="788.764"/>
			<point x="418.49" y="780.955" type="curve"/>
			<point x="429.479" y="729.33"/>
			<point x="431.693" y="576.931"/>
			<point x="431.693" y="472.915" type="curve" smooth="yes"/>
			<point x="431.693" y="359.503"/>
			<point x="425.482" y="181.004"/>
			<point x="410.696" y="122.49" type="curve"/>
			<point x="389.89" y="112.257"/>
			<point x="358.637" y="100.759"/>
			<point x="334.49" y="100.759" type="curve" smooth="yes"/>
			<point x="324.52426" y="100.759"/>
			<point x="304.68023" y="114.07789"/>
			<point x="279.93399" y="133.14267" type="curve"/>
			<point x="273.20274" y="11.94811" type="line"/>
			<point x="300.58687" y="-2.64906"/>
			<point x="320.05063" y="-10.806"/>
			<point x="328.887" y="-10.806" type="curve"/>
			<point x="379.91633" y="18.11767"/>
			<point x="423.94567" y="51.04133"/>
		</contour>
		<contour>
			<point x="55.001" y="780.955" type="curve"/>
			<point x="61.24" y="758.613"/>
			<point x="70.38376" y="670.95223"/>
			<point x="72.243" y="613.789" type="curve" smooth="yes"/>
			<point x="80.175" y="369.916" type="line" smooth="yes"/>
			<point x="82.98566" y="283.50088"/>
			<point x="92.533" y="164.771"/>
			<point x="106.306" y="138.689" type="curve"/>
			<point x="128.71407" y="106.90007"/>
			<point x="176.19666" y="70.34586"/>
			<point x="221.94587" y="41.34097" type="curve"/>
			<point x="205.546" y="789.373" type="line"/>
			<point x="200.104" y="791.694"/>
			<point x="165.275" y="800.453"/>
			<point x="154.359" y="800.373" type="curve" smooth="yes"/>
			<point x="143.709" y="800.295"/>
			<point x="66.737" y="784.764"/>
		</contour>
		<contour>
			<point x="607.58816" y="146.47217" type="curve"/>
			<point x="532.76267" y="66.47819" type="line"/>
			<point x="590.52072" y="22.0679"/>
			<point x="652.6295" y="-10.806"/>
			<point x="672.21" y="-10.806" type="curve" smooth="yes"/>
			<point x="694.093" y="-10.806"/>
			<point x="789.683" y="51.958"/>
			<point x="829.298" y="90.965" type="curve"/>
			<point x="868.452" y="121.835"/>
			<point x="893.918" y="154.503"/>
			<point x="899.878" y="171.803" type="curve"/>
			<point x="905.942" y="197.777"/>
			<point x="916.45065" y="303.47474"/>
			<point x="917.514" y="356.128" type="curve" smooth="yes"/>
			<point x="922.855" y="620.596" type="line" smooth="yes"/>
			<point x="923.93161" y="673.90613"/>
			<point x="930.605" y="737.476"/>
			<point x="933.432" y="789.373" type="curve"/>
			<point x="928.01" y="791.694"/>
			<point x="887.257" y="800.453"/>
			<point x="876.341" y="800.373" type="curve" smooth="yes"/>
			<point x="865.69" y="800.295"/>
			<point x="785.583" y="784.764"/>
			<point x="773.813" y="780.955" type="curve"/>
			<point x="792.802" y="709.33"/>
			<point x="784.016" y="578.844"/>
			<point x="784.016" y="404.828" type="curve" smooth="yes"/>
			<point x="784.016" y="271.416"/>
			<point x="775.805" y="183.004"/>
			<point x="761.019" y="124.49" type="curve"/>
			<point x="740.213" y="114.257"/>
			<point x="696.96" y="100.759"/>
			<point x="676.813" y="100.759" type="curve" smooth="yes"/>
			<point x="668.22397" y="100.759"/>
			<point x="646.15845" y="107.46091"/>
		</contour>
	</outline>
</glyph>
<glyph name="X" format="2">
	<advance width="689.12"/>
	<unicode hex="0058"/>
	<guideline x="-341.39" y="551.05" angle="270"/>
	<guideline x="-872.9" y="561.08" angle="270"/>
	<outline>
		<contour>
			<point x="468.564" y="-0.369" type="line"/>
			<point x="629.117" y="0.049" type="line"/>
			<point x="622.41" y="28.029"/>
			<point x="609.774" y="71.716"/>
			<point x="600.351" y="111.474" type="curve" smooth="yes"/>
			<point x="584.67" y="177.638"/>
			<point x="569.272" y="251.073"/>
			<point x="554.061" y="267.279" type="curve"/>
			<point x="522.785" y="305"/>
			<point x="315.036" y="525.902"/>
			<point x="303.038" y="579.298" type="curve" smooth="yes"/>
			<point x="255.836" y="789.373" type="line"/>
			<point x="250.435" y="791.694"/>
			<point x="214.759" y="800.453"/>
			<point x="203.841" y="800.373" type="curve" smooth="yes"/>
			<point x="193.19" y="800.295"/>
			<point x="107.947" y="784.764"/>
			<point x="96.145" y="780.955" type="curve"/>
			<point x="108.229" y="732.5"/>
			<point x="148.975" y="615.274"/>
			<point x="192.937" y="497.254" type="curve"/>
			<point x="256.983" y="419.796"/>
			<point x="443.059" y="204.592"/>
			<point x="448.89" y="157.735" type="curve" smooth="yes"/>
		</contour>
		<contour>
			<point x="415.14173" y="508.12458" type="curve"/>
			<point x="461.52804" y="441.68229" type="line"/>
			<point x="503.60524" y="491.15707"/>
			<point x="546.22876" y="548.02292"/>
			<point x="558.88" y="568.315" type="curve"/>
			<point x="576.797" y="617.274"/>
			<point x="606.424" y="728.336"/>
			<point x="600.399" y="789.373" type="curve"/>
			<point x="595.018" y="791.694"/>
			<point x="560.418" y="800.453"/>
			<point x="549.5" y="800.373" type="curve" smooth="yes"/>
			<point x="538.848" y="800.295"/>
			<point x="454.47" y="784.764"/>
			<point x="442.634" y="780.955" type="curve"/>
			<point x="450.896" y="739.33"/>
			<point x="446.2" y="638.905"/>
			<point x="443.56" y="603.24" type="curve" smooth="yes"/>
			<point x="440.92943" y="567.69959"/>
			<point x="431.2963" y="537.88709"/>
		</contour>
		<contour>
			<point x="299.70447" y="292.75741" type="curve"/>
			<point x="239.05598" y="347.88268" type="line"/>
			<point x="184.47474" y="297.76197"/>
			<point x="125.60458" y="233.18611"/>
			<point x="120.427" y="219.929" type="curve"/>
			<point x="111.738" y="200.253"/>
			<point x="96.393" y="157.735"/>
			<point x="85.791" y="109.456" type="curve" smooth="yes"/>
			<point x="77.604" y="72.177"/>
			<point x="63.801" y="24.766"/>
			<point x="60.002" y="-0.369" type="curve"/>
			<point x="220.628" y="0.049" type="line"/>
			<point x="222.3507" y="98.7315"/>
			<point x="257.34749" y="214.07834"/>
		</contour>
	</outline>
</glyph>
<glyph name="Z" format="2">
	<advance width="598.14"/>
	<unicode hex="005A"/>
	<outline>
		<contour>
			<point x="118.64289" y="0" type="line"/>
			<point x="165.83774" y="56.20065"/>
			<point x="234.87962" y="136.12003"/>
			<point x="245.063" y="155.129" type="curve" smooth="yes"/>
			<point x="270.533" y="202.673"/>
			<point x="498.009" y="611.35"/>
			<point x="540" y="698" type="curve"/>
			<point x="548.143" y="779.471" type="line"/>
			<point x="517.54557" y="792.36355" type="line"/>
			<point x="374.003" y="651.352" type="line"/>
			<point x="50" y="84" type="line"/>
			<point x="50" y="0" type="line"/>
		</contour>
		<contour>
			<point x="60" y="704" type="line"/>
			<point x="99.96261" y="707.26225"/>
			<point x="290.26944" y="709.85936"/>
			<point x="376.42465" y="710.7064" type="curve"/>
			<point x="433.35053" y="800" type="line"/>
			<point x="60" y="800" type="line"/>
		</contour>
		<contour>
			<point x="259.59513" y="92.08344" type="curve"/>
			<point x="201.9668" y="0" type="line"/>
			<point x="540" y="0" type="line"/>
			<point x="540.143" y="108" type="line"/>
			<point x="485.37959" y="100.80814"/>
			<point x="385.12663" y="92.97245"/>
		</contour>
	</outline>
</glyph>
<glyph name="a" format="2">
	<advance width="552"/>
	<unicode hex="0061"/>
	<anchor x="276" y="600" name="top"/>
	<anchor x="276" y="0" name="bottom"/>
	<anchor x="497" y="10" name="ogonek"/>
	<outline>
		<contour>
			<point x="318.03417" y="559.36945"/>
			<point x="387.15782" y="587.84656" type="curve"/>
			<point x="367.04031" y="592.68688"/>
			<point x="320.31201" y="600"/>
			<point x="263.003" y="600" type="curve" smooth="yes"/>
			<point x="237.003" y="600"/>
			<point x="123.244" y="551.562"/>
			<point x="61.003" y="508" type="curve"/>
			<point x="103.955" y="440.505" type="line"/>
			<point x="129.71919" y="457.23549"/>
		</contour>
		<contour>
			<point x="335.00584" y="32.83549" type="curve"/>
			<point x="308.49105" y="92.04603" type="line"/>
			<point x="287.45665" y="82.07115"/>
			<point x="262.67001" y="73"/>
			<point x="247.003" y="73" type="curve" smooth="yes"/>
			<point x="193.003" y="73"/>
			<point x="181.003" y="134.51"/>
			<point x="181.003" y="177.042" type="curve" smooth="yes"/>
			<point x="181.003" y="232.51"/>
			<point x="218.194" y="271.168"/>
			<point x="262.141" y="271.168" type="curve" smooth="yes"/>
			<point x="291.907" y="271.168"/>
			<point x="362.414" y="253.345"/>
			<point x="380.74" y="243.372" type="curve"/>
			<point x="387.919" y="310" type="line"/>
			<point x="365.101" y="318.9"/>
			<point x="278.155" y="341"/>
			<point x="242.141" y="341" type="curve" smooth="yes"/>
			<point x="92.31" y="341"/>
			<point x="50.003" y="246.114"/>
			<point x="50.003" y="158" type="curve" smooth="yes"/>
			<point x="50.003" y="66"/>
			<point x="119.603" y="-11"/>
			<point x="221.194" y="-11" type="curve" smooth="yes"/>
			<point x="249.9123" y="-11"/>
			<point x="295.68141" y="10.36105"/>
		</contour>
		<contour>
			<point x="450.53235" y="559.88393" type="curve"/>
			<point x="311.07054" y="503.52927" type="line"/>
			<point x="334.50711" y="490.83903"/>
			<point x="354.003" y="466.11235"/>
			<point x="354.003" y="433.73" type="curve" smooth="yes"/>
			<point x="354.003" y="115.1" type="line"/>
			<point x="414.003" y="0" type="line"/>
			<point x="497.003" y="0" type="line"/>
			<point x="494.908" y="17.025"/>
			<point x="487.161" y="93.17"/>
			<point x="486.785" y="116.283" type="curve"/>
			<point x="486.79" y="397.791" type="line"/>
			<point x="489.086" y="438.815"/>
			<point x="488.539" y="470.879"/>
			<point x="491.04" y="502" type="curve"/>
			<point x="488.06555" y="515.64286"/>
			<point x="467.16235" y="542.13687"/>
		</contour>
	</outline>
</glyph>
<glyph name="e" format="2">
	<advance width="515.37"/>
	<unicode hex="0065"/>
	<guideline x="589.72" y="417" angle="0"/>
	<guideline x="589.72" y="87" angle="0"/>
	<guideline x="589.72" y="535" angle="0"/>
	<guideline x="878.72" y="0" angle="0"/>
	<guideline x="589.72" y="357" angle="0"/>
	<guideline x="589.72" y="326" angle="0"/>
	<anchor x="242.52" y="600" name="top"/>
	<anchor x="258" y="0" name="bottom"/>
	<anchor x="464" y="10" name="ogonek"/>
	<outline>
		<contour>
			<point x="204.39404" y="484.75564"/>
			<point x="364.76954" y="595.64333" type="curve"/>
			<point x="345.18269" y="598.23436"/>
			<point x="323.45677" y="599.957"/>
			<point x="303.407" y="599.957" type="curve" smooth="yes"/>
			<point x="177.906" y="599.957"/>
			<point x="30" y="506.518"/>
			<point x="30" y="258.928" type="curve" smooth="yes"/>
			<point x="30" y="106.288"/>
			<point x="118.358" y="-11"/>
			<point x="267.181" y="-11" type="curve" smooth="yes"/>
			<point x="329.467" y="-11"/>
			<point x="402.089" y="4.804"/>
			<point x="477" y="57" type="curve"/>
			<point x="445" y="121" type="line"/>
			<point x="417.597" y="104.438"/>
			<point x="347.055" y="72.957"/>
			<point x="282.578" y="72.957" type="curve" smooth="yes"/>
			<point x="211.157" y="72.957"/>
			<point x="162.153" y="128.891"/>
			<point x="162.153" y="284.612" type="curve" smooth="yes"/>
			<point x="162.153" y="342.271"/>
			<point x="164.337" y="423.06"/>
			<point x="176.064" y="454.738" type="curve"/>
			<point x="185.94565" y="468.38715"/>
		</contour>
		<contour>
			<point x="428.7607" y="576.36716" type="curve"/>
			<point x="307.88076" y="506.75164" type="line"/>
			<point x="349.22732" y="487.91166"/>
			<point x="365.162" y="428.72027"/>
			<point x="365.162" y="359.362" type="curve" smooth="yes"/>
			<point x="365.162" y="341.93"/>
			<point x="365.162" y="319.535"/>
			<point x="365.162" y="300" type="curve"/>
			<point x="381.699" y="323.13" type="line"/>
			<point x="359.699" y="322.851"/>
			<point x="335.546" y="322.811"/>
			<point x="302.407" y="322.811" type="curve" smooth="yes"/>
			<point x="268.16002" y="322.811"/>
			<point x="241.33558" y="321.3091"/>
			<point x="215.02763" y="318.41517" type="curve"/>
			<point x="211.73221" y="245.71808" type="line"/>
			<point x="271.53884" y="245.50206"/>
			<point x="335.31495" y="245.12108"/>
			<point x="398.66" y="244.956" type="curve"/>
			<point x="485.369" y="294.634" type="line"/>
			<point x="485.369" y="357" type="line" smooth="yes"/>
			<point x="485.369" y="436.0372"/>
			<point x="451.6741" y="545.41452"/>
		</contour>
	</outline>
</glyph>
<glyph name="k" format="2">
	<advance width="595.62"/>
	<unicode hex="006B"/>
	<outline>
		<contour>
			<point x="379.44797" y="285.02446" type="curve"/>
			<point x="294.1445" y="197.958" type="line"/>
			<point x="409.62" y="0" type="line"/>
			<point x="560.62" y="0" type="line"/>
			<point x="475.91522" y="127.57271"/>
			<point x="419.49392" y="212.08119"/>
		</contour>
		<contour>
			<point x="55.001" y="784.92" type="curve"/>
			<point x="60.995" y="790.787"/>
			<point x="147.618" y="828"/>
			<point x="158.62" y="828" type="curve" smooth="yes"/>
			<point x="169.62" y="828"/>
			<point x="206.62" y="817"/>
			<point x="211.62" y="813" type="curve"/>
			<point x="211.62" y="411.415" type="line"/>
			<point x="79.277" y="189.378" type="line"/>
			<point x="79.268" y="618.287" type="line"/>
			<point x="76.862" y="667.311"/>
			<point x="64.425" y="753.547"/>
		</contour>
		<contour>
			<point x="69.62" y="0" type="line"/>
			<point x="72.086" y="17.091"/>
			<point x="79.386" y="93.463"/>
			<point x="79.279" y="116.779" type="curve"/>
			<point x="268.299" y="390.839" type="line"/>
			<point x="312.692" y="448.632"/>
			<point x="352.227" y="509.121"/>
			<point x="394.334" y="589" type="curve"/>
			<point x="408.334" y="593"/>
			<point x="491.867" y="600"/>
			<point x="500.177" y="600" type="curve" smooth="yes"/>
			<point x="508.209" y="600"/>
			<point x="534.046" y="572.976"/>
			<point x="541.334" y="565" type="curve"/>
			<point x="211.62" y="159.22724" type="line"/>
			<point x="211.62" y="0" type="line"/>
		</contour>
	</outline>
</glyph>
<glyph name="l" format="2">
	<advance width="320.36"/>
	<unicode hex="006C"/>
	<outline>
		<contour>
			<point x="73.489" y="84.176" type="curve"/>
			<point x="87.247" y="55.799"/>
			<point x="110.573" y="18.782"/>
			<point x="123.821" y="9.163" type="curve"/>
			<point x="137.247" y="3.101"/>
			<point x="199.566" y="-8.836"/>
			<point x="228.23" y="-9" type="curve"/>
			<point x="265.357" y="64.739" type="line"/>
			<point x="247.854" y="72.336"/>
			<point x="214.869" y="93.133"/>
			<point x="214.869" y="113.283" type="curve"/>
			<point x="215.027" y="812.984" type="line"/>
			<point x="210.173" y="816.969"/>
			<point x="170.756" y="828.064"/>
			<point x="159.84" y="827.984" type="curve" smooth="yes"/>
			<point x="149.19" y="827.906"/>
			<point x="60.854" y="788.432"/>
			<point x="54.996" y="783.753" type="curve"/>
			<point x="64.409" y="752.292"/>
			<point x="79.469" y="659.33"/>
			<point x="81.802" y="618.287" type="curve"/>
			<point x="83.343" y="187.554" type="line"/>
			<point x="80.926" y="162.215"/>
			<point x="76.118" y="104.874"/>
		</contour>
	</outline>
</glyph>
<glyph name="m" format="2">
	<advance width="850.96"/>
	<unicode hex="006D"/>
	<outline>
		<contour>
			<point x="527.00873" y="546.66813" type="curve"/>
			<point x="547.74476" y="489.73696" type="line"/>
			<point x="565.47605" y="497.2113"/>
			<point x="589.05846" y="502.968"/>
			<point x="596.361" y="502.968" type="curve" smooth="yes"/>
			<point x="630.793" y="502.968"/>
			<point x="664.18" y="472.089"/>
			<point x="664.18" y="456.968" type="curve" smooth="yes"/>
			<point x="664.18" y="-0.032" type="line"/>
			<point x="805.959" y="0" type="line"/>
			<point x="803.864" y="17.025"/>
			<point x="796.301" y="93.138"/>
			<point x="795.925" y="116.251" type="curve" smooth="yes"/>
			<point x="795.93" y="397.759" type="line"/>
			<point x="798.226" y="438.783"/>
			<point x="797.679" y="470.847"/>
			<point x="800.18" y="501.968" type="curve" smooth="yes"/>
			<point x="800.18" y="514.436"/>
			<point x="761.023" y="573.901"/>
			<point x="752.25" y="579.968" type="curve" smooth="yes"/>
			<point x="743.683" y="585.893"/>
			<point x="657.788" y="599.968"/>
			<point x="638.25" y="599.968" type="curve" smooth="yes"/>
			<point x="619.82364" y="599.968"/>
			<point x="568.10868" y="571.11463"/>
		</contour>
		<contour>
			<point x="257.56996" y="564.80113" type="curve"/>
			<point x="253.17599" y="492.08797" type="line"/>
			<point x="274.6283" y="500.25962"/>
			<point x="287.68074" y="503"/>
			<point x="297.571" y="503" type="curve" smooth="yes"/>
			<point x="332.003" y="503"/>
			<point x="373.39" y="472.121"/>
			<point x="373.39" y="457" type="curve" smooth="yes"/>
			<point x="373.39" y="0" type="line"/>
			<point x="499.39" y="0" type="line"/>
			<point x="499.39" y="466.51776" type="line"/>
			<point x="448.51961" y="582.94497" type="line"/>
			<point x="424.62897" y="589.62975"/>
			<point x="356.23067" y="600"/>
			<point x="339.46" y="600" type="curve" smooth="yes"/>
			<point x="324.67005" y="600"/>
			<point x="291.38468" y="583.82632"/>
		</contour>
		<contour>
			<point x="202.661" y="0.413" type="line"/>
			<point x="200.335" y="585.925" type="line"/>
			<point x="195.481" y="588.928"/>
			<point x="160.727" y="600"/>
			<point x="149.811" y="599.92" type="curve" smooth="yes"/>
			<point x="140.161" y="599.842"/>
			<point x="50.856" y="563.034"/>
			<point x="44.998" y="556.92" type="curve"/>
			<point x="54.10159" y="526.61368"/>
			<point x="66.01677" y="445.1116"/>
			<point x="68.99072" y="402.62429" type="curve"/>
			<point x="69.276" y="116.779" type="line" smooth="yes"/>
			<point x="69.27638" y="93.745"/>
			<point x="61.915" y="17.468"/>
			<point x="59.422" y="0.413" type="curve"/>
		</contour>
	</outline>
</glyph>
<glyph name="r" format="2">
	<advance width="480.03"/>
	<unicode hex="0072"/>
	<outline>
		<contour>
			<point x="255.30931" y="419.35441" type="curve"/>
			<point x="259.67638" y="517.20918" type="line"/>
			<point x="297.78883" y="561.91636"/>
			<point x="334.03151" y="599.917"/>
			<point x="350.257" y="599.917" type="curve" smooth="yes"/>
			<point x="369.795" y="599.917"/>
			<point x="456.162" y="585.603"/>
			<point x="465.03" y="580" type="curve"/>
			<point x="454.617" y="545.681"/>
			<point x="444.204" y="488.615"/>
			<point x="441.632" y="450.225" type="curve"/>
			<point x="401.901" y="460.763"/>
			<point x="357.64603" y="466.708"/>
			<point x="338.71503" y="466.708" type="curve" smooth="yes"/>
			<point x="320.94292" y="466.708"/>
			<point x="281.07633" y="444.5877"/>
		</contour>
		<contour>
			<point x="69.424" y="0.413" type="line"/>
			<point x="71.917" y="17.468"/>
			<point x="79.271" y="93.745"/>
			<point x="79.278" y="116.779" type="curve"/>
			<point x="79.273" y="398.287" type="line"/>
			<point x="76.861" y="439.311"/>
			<point x="64.424" y="525.547"/>
			<point x="55" y="556.92" type="curve"/>
			<point x="60.858" y="563.034"/>
			<point x="147.163" y="599.842"/>
			<point x="157.813" y="599.92" type="curve" smooth="yes"/>
			<point x="168.729" y="600"/>
			<point x="206.146" y="588.905"/>
			<point x="211" y="584.92" type="curve"/>
			<point x="210.663" y="0.413" type="line"/>
		</contour>
	</outline>
</glyph>
<glyph name="w" format="2">
	<advance width="820.95"/>
	<unicode hex="0077"/>
	<outline>
		<contour>
			<point x="59.59716" y="315.50569" type="curve"/>
			<point x="192.06278" y="172.95307" type="line"/>
			<point x="191.72035" y="180.72727"/>
			<point x="191.61135" y="188.82944"/>
			<point x="191.62" y="197.213" type="curve" smooth="yes"/>
			<point x="191.997" y="584.996" type="line"/>
			<point x="187.143" y="588.981"/>
			<point x="149.726" y="600.076"/>
			<point x="138.81" y="599.996" type="curve" smooth="yes"/>
			<point x="128.16" y="599.918"/>
			<point x="45.855" y="559.11"/>
			<point x="39.997" y="552.996" type="curve"/>
			<point x="51.555" y="496.525"/>
			<point x="59.552" y="429.703"/>
			<point x="59.625" y="399.402" type="curve" smooth="yes"/>
			<point x="59.67644" y="377.92535"/>
			<point x="59.65546" y="348.17117"/>
		</contour>
		<contour>
			<point x="59" y="92" type="curve"/>
			<point x="89.45" y="54.547"/>
			<point x="202.498" y="-10.95"/>
			<point x="257.192" y="-10.95" type="curve" smooth="yes"/>
			<point x="305.88015" y="-10.95"/>
			<point x="363.69415" y="24.67101"/>
			<point x="408.89169" y="69.25512" type="curve"/>
			<point x="454.90736" y="20.92669"/>
			<point x="522.32641" y="-10.95"/>
			<point x="546.953" y="-10.95" type="curve" smooth="yes"/>
			<point x="569.15127" y="-10.95"/>
			<point x="592.29279" y="-5.01117"/>
			<point x="615.01137" y="5.07435" type="curve"/>
			<point x="539.50439" y="67.49692"/>
			<point x="484.90218" y="86.9679"/>
			<point x="484.962" y="190.62804" type="curve" smooth="yes"/>
			<point x="485.184" y="585.034" type="line"/>
			<point x="480.33" y="589.019"/>
			<point x="442.913" y="600.114"/>
			<point x="431.997" y="600.034" type="curve" smooth="yes"/>
			<point x="421.347" y="599.956"/>
			<point x="335.042" y="559.148"/>
			<point x="329.184" y="553.034" type="curve"/>
			<point x="348.909" y="491.5"/>
			<point x="357.445" y="434.395"/>
			<point x="357.445" y="399.793" type="curve" smooth="yes"/>
			<point x="357.445" y="155.186"/>
			<point x="331.922" y="72.957"/>
			<point x="293.483" y="72.957" type="curve" smooth="yes"/>
			<point x="232.42201" y="72.957"/>
			<point x="187.143" y="124.7"/>
			<point x="59.40287" y="234.00617" type="curve"/>
			<point x="59.21844" y="168.6135"/>
			<point x="59" y="108.4186"/>
		</contour>
		<contour>
			<point x="605.14519" y="83.65567" type="curve"/>
			<point x="656.80965" y="28.42681" type="line"/>
			<point x="725.10504" y="74.38256"/>
			<point x="780.69462" y="150.43364"/>
			<point x="780.723" y="200.363" type="curve" smooth="yes"/>
			<point x="780.945" y="585.034" type="line"/>
			<point x="776.091" y="589.019"/>
			<point x="738.674" y="600.114"/>
			<point x="727.758" y="600.034" type="curve" smooth="yes"/>
			<point x="717.108" y="599.956"/>
			<point x="627.803" y="559.148"/>
			<point x="621.945" y="553.034" type="curve"/>
			<point x="641.67" y="496.563"/>
			<point x="650.206" y="439.574"/>
			<point x="650.206" y="399.793" type="curve" smooth="yes"/>
			<point x="650.206" y="204.53454"/>
			<point x="632.03089" y="112.74482"/>
		</contour>
	</outline>
</glyph>
<glyph name="x" format="2">
	<advance width="538.28"/>
	<unicode hex="0078"/>
	<guideline x="502.97" y="554.4" angle="270"/>
	<outline>
		<contour>
			<point x="188.00716" y="327.0939" type="curve"/>
			<point x="250.69563" y="402.22549" type="line"/>
			<point x="240.539" y="427.318"/>
			<point x="209.379" y="541.033"/>
			<point x="201.69" y="582.462" type="curve"/>
			<point x="196.516" y="584.685"/>
			<point x="155.337" y="600.077"/>
			<point x="144.877" y="600" type="curve" smooth="yes"/>
			<point x="134.673" y="599.925"/>
			<point x="59.007" y="562.046"/>
			<point x="47.701" y="554.397" type="curve"/>
			<point x="88.795" y="453.743"/>
			<point x="157.74349" y="364.45199"/>
		</contour>
		<contour>
			<point x="368.61131" y="310.3559"/>
			<point x="412.75649" y="364.93075" type="curve"/>
			<point x="441.59647" y="397.28653"/>
			<point x="495.204" y="532.033"/>
			<point x="494.432" y="590.509" type="curve"/>
			<point x="489.276" y="592.732"/>
			<point x="460.017" y="603.111"/>
			<point x="449.557" y="603.034" type="curve" smooth="yes"/>
			<point x="439.352" y="602.959"/>
			<point x="360.244" y="567.04"/>
			<point x="345.67" y="556.684" type="curve"/>
			<point x="348.67" y="504.949"/>
			<point x="342.247" y="437.263"/>
			<point x="330.542" y="410.227" type="curve"/>
			<point x="317.371" y="377.805"/>
			<point x="131.40602" y="224.04883"/>
			<point x="105.211" y="196.571" type="curve"/>
			<point x="91.908" y="177.763"/>
			<point x="68.799" y="126.328"/>
			<point x="62.711" y="105.202" type="curve" smooth="yes"/>
			<point x="52.587" y="70.066"/>
			<point x="43.645" y="24.07"/>
			<point x="40.005" y="-0.014" type="curve"/>
			<point x="181.89" y="0.386" type="line"/>
			<point x="195.76404" y="94.70807"/>
			<point x="211.97825" y="151.55505"/>
			<point x="235.1924" y="197.02269" type="curve"/>
			<point x="262.04335" y="239.32395"/>
		</contour>
		<contour>
			<point x="384.05762" y="265.74094" type="curve"/>
			<point x="305.80008" y="209.51947" type="line"/>
			<point x="311.69239" y="203.77998"/>
			<point x="316.58469" y="196.04049"/>
			<point x="320.477" y="186.301" type="curve"/>
			<point x="356.465" y="-0.001" type="line"/>
			<point x="498.28" y="0.399" type="line"/>
			<point x="470.844" y="95.844" type="line" smooth="yes"/>
			<point x="461.2103" y="129.35793"/>
			<point x="414.219" y="232.065"/>
			<point x="403.647" y="247.591" type="curve"/>
			<point x="397.11721" y="254.64098"/>
			<point x="390.58741" y="260.69096"/>
		</contour>
	</outline>
</glyph>
<glyph name="z" format="2">
	<advance width="529"/>
	<unicode hex="007A"/>
	<outline>
		<contour>
			<point x="0" y="0"/>
			<point x="0" y="0"/>
		</contour>
		<contour>
			<point x="41.79715" y="564.64576" type="line"/>
			<point x="63.70333" y="576.38644"/>
			<point x="111.20934" y="595.09978"/>
			<point x="125.42134" y="599.918" type="curve"/>
			<point x="413" y="600" type="line"/>
			<point x="429.448" y="596"/>
			<point x="481.315" y="579.75548"/>
			<point x="487.48221" y="576.97095" type="curve"/>
			<point x="479" y="497" type="line"/>
			<point x="459.88726" y="468.17687" type="line"/>
			<point x="354.63007" y="510" type="line"/>
			<point x="266.46307" y="510"/>
			<point x="101.948" y="506"/>
			<point x="58" y="506" type="curve"/>
		</contour>
		<contour>
			<point x="200.4108" y="0" type="line"/>
			<point x="249.83438" y="84.59322" type="line"/>
			<point x="281" y="85" type="line"/>
			<point x="315.726" y="85"/>
			<point x="412.5" y="90"/>
			<point x="479" y="94" type="curve"/>
			<point x="479" y="0" type="line"/>
		</contour>
		<contour>
			<point x="258.556" y="160.028" type="curve"/>
			<point x="132.15874" y="0" type="line"/>
			<point x="50" y="0" type="line"/>
			<point x="50" y="79" type="line"/>
			<point x="337.788" y="472.924" type="line"/>
			<point x="425.02014" y="411.15734" type="line"/>
			<point x="367.97155" y="324.52075"/>
			<point x="274.44259" y="183.5607"/>
		</contour>
	</outline>
</glyph>
<glyph name="Ntilde" format="2">
	<advance width="677.86"/>
	<unicode hex="00D1"/>
	<anchor x="360.04322" y="794.55492" name="top"/>
	<anchor x="339" y="0" name="bottom"/>
	<outline>
		<component base="tilde" xOffset="137.718" yOffset="201.639"/>
		<contour>
			<point x="495.79266" y="256.84936" type="line"/>
			<point x="608.62912" y="235.88549" type="line"/>
			<point x="608.637" y="588.414" type="line"/>
			<point x="613.187" y="645.948"/>
			<point x="621.086" y="737.482"/>
			<point x="627.864" y="791.481" type="curve"/>
			<point x="623.01" y="793.055"/>
			<point x="597.182" y="800.44"/>
			<point x="586.265" y="800.373" type="curve" smooth="yes"/>
			<point x="573.615" y="800.295"/>
			<point x="502.028" y="788.175"/>
			<point x="494.986" y="786.061" type="curve"/>
		</contour>
		<contour>
			<point x="178.86" y="622" type="line"/>
			<point x="170.82949" y="799.34228" type="line"/>
			<point x="162.4464" y="799.74025"/>
			<point x="155.83295" y="800"/>
			<point x="152.86" y="800" type="curve" smooth="yes"/>
			<point x="146.351" y="800"/>
			<point x="63.308" y="783.093"/>
			<point x="50.003" y="779.471" type="curve"/>
			<point x="56.781" y="725.472"/>
			<point x="61.355" y="645.948"/>
			<point x="65.905" y="588.414" type="curve"/>
			<point x="65.915" y="153.611" type="line"/>
			<point x="65.915" y="128.688"/>
			<point x="58.508" y="41.229"/>
			<point x="52.86" y="0" type="curve"/>
			<point x="177.86" y="0" type="line"/>
		</contour>
		<contour>
			<point x="608.6278" y="188.34042" type="line"/>
			<point x="495.86" y="191" type="line"/>
			<point x="396.466" y="403.922"/>
			<point x="243.435" y="795.317"/>
			<point x="243.435" y="795.317" type="curve"/>
			<point x="241.02987" y="795.46498"/>
			<point x="234.41546" y="795.86073"/>
			<point x="225.76241" y="796.36324" type="curve"/>
			<point x="222.06728" y="502.84739" type="line"/>
			<point x="438.86" y="0" type="line"/>
			<point x="618.683" y="0" type="line"/>
			<point x="613.035" y="41.229"/>
			<point x="608.627" y="128.688"/>
			<point x="608.627" y="153.611" type="curve"/>
		</contour>
	</outline>
</glyph>
<glyph name="quotedblright" format="2">
	<advance width="427.76"/>
	<unicode hex="201D"/>
	<outline>
		<contour>
			<point x="29.998" y="530.62903" type="line"/>
			<point x="59.62" y="591.13599"/>
			<point x="71.62" y="663.88702"/>
			<point x="54.233" y="756.12903" type="curve"/>
			<point x="67.883" y="774.211"/>
			<point x="81.178" y="792.29303"/>
			<point x="91.626" y="800" type="curve"/>
			<point x="104.13" y="805.34698"/>
			<point x="165.437" y="811.61102"/>
			<point x="196.705" y="800" type="curve"/>
			<point x="201.782" y="775.94897"/>
			<point x="219.55701" y="642.39502"/>
			<point x="82.662" y="488.11401" type="curve"/>
		</contour>
		<contour>
			<point x="227.459" y="530.62903" type="line"/>
			<point x="257.08099" y="591.13599"/>
			<point x="269.08099" y="663.88702"/>
			<point x="251.694" y="756.12903" type="curve"/>
			<point x="265.34399" y="774.211"/>
			<point x="278.63901" y="792.29303"/>
			<point x="289.08701" y="800" type="curve"/>
			<point x="301.591" y="805.34698"/>
			<point x="362.89801" y="811.61102"/>
			<point x="394.16599" y="800" type="curve"/>
			<point x="399.24301" y="775.94897"/>
			<point x="417.01801" y="642.39502"/>
			<point x="280.12299" y="488.11401" type="curve"/>
		</contour>
	</outline>
</glyph>
<glyph name="rightArrow" format="2">
	<advance width="925"/>
	<unicode hex="2192"/>
	<outline>
		<contour>
			<point x="494.00387" y="314" type="line"/>
			<point x="516.00288" y="482.47415" type="line"/>
			<point x="676" y="484" type="line"/>
			<point x="680" y="484"/>
			<point x="685" y="484"/>
			<point x="692" y="484" type="curve"/>
			<point x="667" y="466" type="line"/>
			<point x="616" y="549"/>
			<point x="568" y="631"/>
			<point x="501" y="733" type="curve"/>
			<point x="644" y="809" type="line"/>
			<point x="693" y="712" type="line"/>
			<point x="737" y="642"/>
			<point x="875" y="417"/>
			<point x="875" y="407" type="curve"/>
			<point x="875" y="400"/>
			<point x="736" y="166"/>
			<point x="693" y="97" type="curve"/>
			<point x="644" y="0" type="line"/>
			<point x="501" y="76" type="line"/>
			<point x="566" y="175"/>
			<point x="612" y="254"/>
			<point x="662" y="335" type="curve"/>
			<point x="683" y="314" type="line"/>
		</contour>
		<contour>
			<point x="464.29589" y="481.91058" type="line"/>
			<point x="433.70627" y="314" type="line"/>
			<point x="74" y="314" type="line"/>
			<point x="69" y="320"/>
			<point x="50" y="366"/>
			<point x="50" y="380" type="curve" smooth="yes"/>
			<point x="50" y="393"/>
			<point x="91" y="492"/>
			<point x="98" y="500" type="curve"/>
			<point x="159" y="484"/>
			<point x="256" y="480"/>
			<point x="309" y="480" type="curve"/>
		</contour>
	</outline>
</glyph>
<glyph name="upDownArrow" format="2">
	<advance width="924"/>
	<unicode hex="2195"/>
	<guideline x="30" y="421" angle="0"/>
	<guideline x="30" y="560" angle="0"/>
	<outline>
		<contour>
			<point x="545.796" y="309.671" type="line"/>
			<point x="545" y="23" type="line"/>
			<point x="524" y="44" type="line"/>
			<point x="605" y="94"/>
			<point x="684" y="140"/>
			<point x="783" y="205" type="curve"/>
			<point x="860" y="62" type="line"/>
			<point x="762" y="13" type="line"/>
			<point x="693" y="-30"/>
			<point x="459" y="-169"/>
			<point x="452" y="-169" type="curve"/>
			<point x="442" y="-169"/>
			<point x="217" y="-31"/>
			<point x="147" y="13" type="curve"/>
			<point x="50" y="62" type="line"/>
			<point x="126" y="205" type="line"/>
			<point x="228" y="138"/>
			<point x="310" y="90"/>
			<point x="393" y="39" type="curve"/>
			<point x="375" y="14" type="line"/>
			<point x="375.747" y="286.533" type="line"/>
		</contour>
		<contour>
			<point x="375.998" y="348.242" type="line"/>
			<point x="378" y="633" type="line"/>
			<point x="399" y="612" type="line"/>
			<point x="318" y="562"/>
			<point x="239" y="516"/>
			<point x="140" y="451" type="curve"/>
			<point x="64" y="594" type="line"/>
			<point x="161" y="643" type="line"/>
			<point x="230" y="686"/>
			<point x="464" y="825"/>
			<point x="471" y="825" type="curve"/>
			<point x="481" y="825"/>
			<point x="706" y="687"/>
			<point x="776" y="643" type="curve"/>
			<point x="874" y="594" type="line"/>
			<point x="798" y="451" type="line"/>
			<point x="695" y="518"/>
			<point x="613" y="566"/>
			<point x="530" y="617" type="curve"/>
			<point x="548" y="642" type="line"/>
			<point x="546.114" y="381.196" type="line"/>
		</contour>
	</outline>
</glyph>
<glyph name="estarcido" format="2">
	<advance width="600"/>
	<outline>
		<contour>
			<point x="181.95668" y="196.37857" type="line"/>
			<point x="213.44876" y="199.76152" type="line"/>
			<point x="218.73283" y="678.67168" type="line"/>
			<point x="161.59284" y="678.81557" type="line"/>
		</contour>
		<contour>
			<point x="335.93414" y="411.98082" type="line"/>
			<point x="355.92314" y="387.41182" type="line"/>
			<point x="574.1579" y="521.65635" type="line"/>
			<point x="543.1579" y="569.65635" type="line"/>
		</contour>
	</outline>
</glyph>
<glyph name="pic.mujer" format="2">
	<advance width="677"/>
	<guideline x="251" y="0" angle="0"/>
	<guideline y="1000"/>
	<guideline y="467"/>
	<outline>
		<contour>
			<point x="337" y="621" type="curve" smooth="yes"/>
			<point x="399" y="621"/>
			<point x="449" y="664"/>
			<point x="449" y="728" type="curve" smooth="yes"/>
			<point x="449" y="789"/>
			<point x="399" y="830"/>
			<point x="337" y="830" type="curve" smooth="yes"/>
			<point x="274" y="830"/>
			<point x="224" y="789"/>
			<point x="224" y="728" type="curve" smooth="yes"/>
			<point x="224" y="664"/>
			<point x="274" y="621"/>
		</contour>
		<contour>
			<point x="50" y="78.60975" type="line"/>
			<point x="178.398" y="153.53675" type="line"/>
			<point x="190.16" y="191.75075"/>
			<point x="206.535" y="231.45275"/>
			<point x="227" y="272.38275" type="curve" smooth="yes"/>
			<point x="249.861" y="319.57875"/>
			<point x="298.281" y="407.56275"/>
			<point x="329.751" y="458.53075" type="curve"/>
			<point x="502.438" y="109.75475" type="line"/>
			<point x="399.137" y="103.68375"/>
			<point x="271.38" y="103.26675"/>
			<point x="194.343" y="108.82375" type="curve"/>
			<point x="93" y="27.38275" type="line"/>
			<point x="257" y="16.38275"/>
			<point x="416" y="16.38275"/>
			<point x="580" y="27.38275" type="curve"/>
			<point x="587" y="31.38275"/>
			<point x="617" y="52.38275"/>
			<point x="626" y="61.38275" type="curve"/>
			<point x="626" y="107.38275" type="line"/>
			<point x="617" y="113.38275"/>
			<point x="593.437" y="157.60475"/>
			<point x="577" y="189.38275" type="curve" smooth="yes"/>
			<point x="457" y="421.38275" type="line" smooth="yes"/>
			<point x="426.591" y="480.17275"/>
			<point x="400" y="529"/>
			<point x="387" y="543" type="curve" smooth="yes"/>
			<point x="362" y="566"/>
			<point x="300" y="557"/>
			<point x="280" y="547" type="curve"/>
			<point x="50" y="107.38275" type="line"/>
		</contour>
	</outline>
</glyph>
<glyph name="southEastArro" format="2">
	<advance width="845"/>
	<outline>
		<contour>
			<point x="254.005" y="372.66472" type="line"/>
			<point x="109" y="722.20172" type="line"/>
			<point x="112" y="729.20172"/>
			<point x="147" y="764.20172"/>
			<point x="160" y="769.20172" type="curve" smooth="yes"/>
			<point x="172" y="775.20172"/>
			<point x="279" y="775.20172"/>
			<point x="289" y="772.20172" type="curve"/>
			<point x="298" y="710.20172"/>
			<point x="333" y="619.20172"/>
			<point x="353" y="570.20172" type="curve"/>
			<point x="393.656" y="469.60372" type="line"/>
		</contour>
		<contour>
			<point x="417.288" y="415.47672" type="line"/>
			<point x="508" y="215.20172" type="line"/>
			<point x="510" y="212.20172"/>
			<point x="512" y="207.20172"/>
			<point x="515" y="201.20172" type="curve"/>
			<point x="488" y="217.20172" type="line"/>
			<point x="545" y="296.20172"/>
			<point x="601" y="372.20172"/>
			<point x="669" y="474.20172" type="curve"/>
			<point x="795" y="372.20172" type="line"/>
			<point x="725" y="289.20172" type="line"/>
			<point x="678" y="221.20172"/>
			<point x="524" y="6.20172"/>
			<point x="515" y="2.20172" type="curve"/>
			<point x="509" y="-0.79828"/>
			<point x="239" y="36.20172"/>
			<point x="159" y="49.20172" type="curve"/>
			<point x="50" y="56.20172" type="line"/>
			<point x="64" y="217.20172" type="line"/>
			<point x="181" y="196.20172"/>
			<point x="272" y="185.20172"/>
			<point x="366" y="170.20172" type="curve"/>
			<point x="355" y="143.20172" type="line"/>
			<point x="273.922" y="325.78872" type="line"/>
		</contour>
	</outline>
</glyph>
<glyph name="southWestArro" format="2">
	<advance width="845"/>
	<outline>
		<contour>
			<point x="588.995" y="372.66472" type="line"/>
			<point x="449.344" y="469.60372" type="line"/>
			<point x="492" y="570.20172" type="line"/>
			<point x="512" y="619.20172"/>
			<point x="547" y="710.20172"/>
			<point x="556" y="772.20172" type="curve"/>
			<point x="566" y="775.20172"/>
			<point x="673" y="775.20172"/>
			<point x="685" y="769.20172" type="curve" smooth="yes"/>
			<point x="698" y="764.20172"/>
			<point x="733" y="729.20172"/>
			<point x="736" y="722.20172" type="curve"/>
		</contour>
		<contour>
			<point x="425.712" y="415.47672" type="line"/>
			<point x="569.078" y="325.78872" type="line"/>
			<point x="490" y="143.20172" type="line"/>
			<point x="479" y="170.20172" type="line"/>
			<point x="573" y="185.20172"/>
			<point x="664" y="196.20172"/>
			<point x="781" y="217.20172" type="curve"/>
			<point x="795" y="56.20172" type="line"/>
			<point x="686" y="49.20172" type="line"/>
			<point x="606" y="36.20172"/>
			<point x="336" y="-0.79828"/>
			<point x="330" y="2.20172" type="curve"/>
			<point x="321" y="6.20172"/>
			<point x="167" y="221.20172"/>
			<point x="120" y="289.20172" type="curve"/>
			<point x="50" y="372.20172" type="line"/>
			<point x="176" y="474.20172" type="line"/>
			<point x="244" y="372.20172"/>
			<point x="300" y="296.20172"/>
			<point x="357" y="217.20172" type="curve"/>
			<point x="330" y="201.20172" type="line"/>
			<point x="333" y="207.20172"/>
			<point x="335" y="212.20172"/>
			<point x="337" y="215.20172" type="curve"/>
		</contour>
	</outline>
</glyph>
